ffmpeg version 4.2.7-0ubuntu0.1 Copyright (c) 2000-2022 the FFmpeg developers
  built with gcc 9 (Ubuntu 9.4.0-1ubuntu1~20.04.1)
  configuration: --prefix=/usr --extra-version=0ubuntu0.1 --toolchain=hardened --libdir=/usr/lib/x86_64-linux-gnu --incdir=/usr/include/x86_64-linux-gnu --arch=amd64 --enable-gpl --disable-stripping --enable-avresample --disable-filter=resample --enable-avisynth --enable-gnutls --enable-ladspa --enable-libaom --enable-libass --enable-libbluray --enable-libbs2b --enable-libcaca --enable-libcdio --enable-libcodec2 --enable-libflite --enable-libfontconfig --enable-libfreetype --enable-libfribidi --enable-libgme --enable-libgsm --enable-libjack --enable-libmp3lame --enable-libmysofa --enable-libopenjpeg --enable-libopenmpt --enable-libopus --enable-libpulse --enable-librsvg --enable-librubberband --enable-libshine --enable-libsnappy --enable-libsoxr --enable-libspeex --enable-libssh --enable-libtheora --enable-libtwolame --enable-libvidstab --enable-libvorbis --enable-libvpx --enable-libwavpack --enable-libwebp --enable-libx265 --enable-libxml2 --enable-libxvid --enable-libzmq --enable-libzvbi --enable-lv2 --enable-omx --enable-openal --enable-opencl --enable-opengl --enable-sdl2 --enable-libdc1394 --enable-libdrm --enable-libiec61883 --enable-nvenc --enable-chromaprint --enable-frei0r --enable-libx264 --enable-shared
  libavutil      56. 31.100 / 56. 31.100
  libavcodec     58. 54.100 / 58. 54.100
  libavformat    58. 29.100 / 58. 29.100
  libavdevice    58.  8.100 / 58.  8.100
  libavfilter     7. 57.100 /  7. 57.100
  libavresample   4.  0.  0 /  4.  0.  0
  libswscale      5.  5.100 /  5.  5.100
  libswresample   3.  5.100 /  3.  5.100
  libpostproc    55.  5.100 / 55.  5.100
Routing option strict to both codec and muxer layer
[h264 @ 0x5594cc22ee00] Reinit context to 848x480, pix_fmt: yuv420p
[aac @ 0x5594cc230b00] Input buffer exhausted before END element found
Input #0, mov,mp4,m4a,3gp,3g2,mj2, from '/var/www/html/project/media/video/original/VID-20230726-WA0038.mp4':
  Metadata:
    major_brand     : mp42
    minor_version   : 0
    compatible_brands: mp42isom
  Duration: 00:00:42.60, start: 0.000000, bitrate: 1775 kb/s
    Stream #0:0(und): Video: h264 (Constrained Baseline), 1 reference frame (avc1 / 0x31637661), yuv420p(tv, bt709, left), 848x480, 1580 kb/s, SAR 1:1 DAR 53:30, 29.73 fps, 29.75 tbr, 90k tbn, 180k tbc (default)
    Stream #0:1(und): Audio: aac (LC) (mp4a / 0x6134706D), 48000 Hz, stereo, fltp, 191 kb/s (default)
Input #1, png_pipe, from '/var/www/html/project/static/images/templates/logo.png':
  Duration: N/A, bitrate: N/A
    Stream #1:0: Video: png, 1 reference frame, rgba(pc), 1920x1080 [SAR 2835:2835 DAR 16:9], 25 tbr, 25 tbn, 25 tbc
[Parsed_scale_0 @ 0x5594cc2304c0] w:1280 h:720 flags:'bilinear' interl:0
[Parsed_scale_2 @ 0x5594cc295580] w:1280 h:720 flags:'bilinear' interl:0
Stream mapping:
  Stream #0:0 (h264) -> scale (graph 0)
  Stream #1:0 (png) -> scale (graph 0)
  overlay (graph 0) -> Stream #0:0 (libx264)
  Stream #0:1 -> #0:1 (aac (native) -> aac (native))
Press [q] to stop, [?] for help
[h264 @ 0x5594cc3db440] Reinit context to 848x480, pix_fmt: yuv420p
[aac @ 0x5594cc26ac00] Input buffer exhausted before END element found
Error while decoding stream #0:1: Invalid data found when processing input
[graph_1_in_0_1 @ 0x5594cc81d840] tb:1/48000 samplefmt:fltp samplerate:48000 chlayout:0x3
[aac @ 0x5594cc26ac00] ChannelElement 0.0 missing 
    Last message repeated 14 times
[Parsed_scale_0 @ 0x5594cc946f00] w:1280 h:720 flags:'bilinear' interl:0
[Parsed_scale_2 @ 0x5594cc9c9d00] w:1280 h:720 flags:'bilinear' interl:0
[graph 0 input from stream 0:0 @ 0x5594cc9cc1c0] w:848 h:480 pixfmt:yuv420p tb:1/90000 fr:119/4 sar:1/1 sws_param:flags=2
[graph 0 input from stream 1:0 @ 0x5594cc9cd200] w:1920 h:1080 pixfmt:rgba tb:1/25 fr:25/1 sar:2835/2835 sws_param:flags=2
[Parsed_scale_0 @ 0x5594cc946f00] w:848 h:480 fmt:yuv420p sar:1/1 -> w:1280 h:720 fmt:yuv420p sar:159/160 flags:0x2
[Parsed_setsar_1 @ 0x5594cc9c9300] w:1280 h:720 sar:159/160 dar:53/30 -> sar:1/1 dar:16/9
[Parsed_scale_2 @ 0x5594cc9c9d00] w:1920 h:1080 fmt:rgba sar:2835/2835 -> w:1280 h:720 fmt:yuva420p sar:1/1 flags:0x2
[Parsed_setsar_3 @ 0x5594cc9ca780] w:1280 h:720 sar:1/1 dar:16/9 -> sar:1/1 dar:16/9
[Parsed_overlay_4 @ 0x5594cc9cb380] main w:1280 h:720 fmt:yuv420p overlay w:1280 h:720 fmt:yuva420p
[Parsed_overlay_4 @ 0x5594cc9cb380] [framesync @ 0x5594cc9cb4e8] Selected 1/90000 time base
[Parsed_overlay_4 @ 0x5594cc9cb380] [framesync @ 0x5594cc9cb4e8] Sync level 2
[libx264 @ 0x5594cc26dc00] using SAR=1/1
[libx264 @ 0x5594cc26dc00] using cpu capabilities: MMX2 SSE2Fast SSSE3 SSE4.2 AVX FMA3 BMI2 AVX2
[libx264 @ 0x5594cc26dc00] profile High, level 3.1
[libx264 @ 0x5594cc26dc00] 264 - core 155 r2917 0a84d98 - H.264/MPEG-4 AVC codec - Copyleft 2003-2018 - http://www.videolan.org/x264.html - options: cabac=1 ref=1 deblock=1:0:0 analyse=0x3:0x113 me=hex subme=2 psy=1 psy_rd=1.00:0.00 mixed_ref=0 me_range=16 chroma_me=1 trellis=0 8x8dct=1 cqm=0 deadzone=21,11 fast_pskip=1 chroma_qp_offset=0 threads=22 lookahead_threads=5 sliced_threads=0 nr=0 decimate=1 interlaced=0 bluray_compat=0 constrained_intra=0 bframes=3 b_pyramid=2 b_adapt=1 b_bias=0 direct=1 weightb=1 open_gop=0 weightp=1 keyint=250 keyint_min=25 scenecut=40 intra_refresh=0 rc_lookahead=10 rc=crf mbtree=1 crf=18.0 qcomp=0.60 qpmin=0 qpmax=69 qpstep=4 ip_ratio=1.40 aq=1:1.00
Output #0, mp4, to '/var/www/html/project/media/video/watermarks/VID-20230726-WA0038.mp4':
  Metadata:
    major_brand     : mp42
    minor_version   : 0
    compatible_brands: mp42isom
    encoder         : Lavf58.29.100
    Stream #0:0: Video: h264 (libx264), 1 reference frame (avc1 / 0x31637661), yuv420p, 1280x720 [SAR 1:1 DAR 16:9], q=-1--1, 29.75 fps, 15232 tbn, 29.75 tbc (default)
    Metadata:
      encoder         : Lavc58.54.100 libx264
    Side data:
      cpb: bitrate max/min/avg: 0/0/0 buffer size: 0 vbv_delay: -1
    Stream #0:1(und): Audio: aac (LC) (mp4a / 0x6134706D), 48000 Hz, stereo, fltp, delay 1024, 128 kb/s (default)
    Metadata:
      encoder         : Lavc58.54.100 aac
[aac @ 0x5594cc26ac00] ChannelElement 0.0 missing 
    Last message repeated 1976 times
[Parsed_overlay_4 @ 0x5594cc9cb380] [framesync @ 0x5594cc9cb4e8] Sync level 0
No more output streams to write to, finishing.
frame= 1266 fps=103 q=-1.0 Lsize=   30896kB time=00:00:42.59 bitrate=5942.1kbits/s speed=3.45x    
[AVIOContext @ 0x5594cc22d0c0] Statistics: 0 seeks, 25 writeouts
video:30185kB audio:665kB subtitle:0kB other streams:0kB global headers:0kB muxing overhead: 0.150489%
Input file #0 (/var/www/html/project/media/video/original/VID-20230726-WA0038.mp4):
  Input stream #0:0 (video): 1266 packets read (8414784 bytes); 1266 frames decoded; 
  Input stream #0:1 (audio): 1994 packets read (1020498 bytes); 1993 frames decoded (2040832 samples); 
  Total: 3260 packets (9435282 bytes) demuxed
Input file #1 (/var/www/html/project/static/images/templates/logo.png):
  Input stream #1:0 (video): 1 packets read (111578 bytes); 1 frames decoded; 
  Total: 1 packets (111578 bytes) demuxed
Output file #0 (/var/www/html/project/media/video/watermarks/VID-20230726-WA0038.mp4):
  Output stream #0:0 (video): 1266 frames encoded; 1266 packets muxed (30909094 bytes); 
  Output stream #0:1 (audio): 1993 frames encoded (2040832 samples); 1994 packets muxed (681268 bytes); 
  Total: 3260 packets (31590362 bytes) muxed
[AVIOContext @ 0x5594cc278580] Statistics: 2 seeks, 124 writeouts
[libx264 @ 0x5594cc26dc00] frame I:6     Avg QP:15.07  size:102204
[libx264 @ 0x5594cc26dc00] frame P:322   Avg QP:17.84  size: 48608
[libx264 @ 0x5594cc26dc00] frame B:938   Avg QP:21.26  size: 15611
[libx264 @ 0x5594cc26dc00] consecutive B-frames:  1.0%  0.3%  0.7% 97.9%
[libx264 @ 0x5594cc26dc00] mb I  I16..4: 23.1% 15.8% 61.0%
[libx264 @ 0x5594cc26dc00] mb P  I16..4:  7.2%  6.0%  4.4%  P16..4: 25.7% 19.1% 16.5%  0.0%  0.0%    skip:21.1%
[libx264 @ 0x5594cc26dc00] mb B  I16..4:  0.6%  0.2%  0.1%  B16..8: 22.7% 13.0%  3.1%  direct:14.4%  skip:45.8%  L0:35.4% L1:39.9% BI:24.7%
[libx264 @ 0x5594cc26dc00] 8x8 transform intra:31.2% inter:23.5%
[libx264 @ 0x5594cc26dc00] coded y,uvDC,uvAC intra: 51.8% 41.4% 14.1% inter: 26.1% 7.1% 0.2%
[libx264 @ 0x5594cc26dc00] i16 v,h,dc,p: 34% 54%  8%  5%
[libx264 @ 0x5594cc26dc00] i8 v,h,dc,ddl,ddr,vr,hd,vl,hu: 13% 45% 21%  2%  4%  2%  5%  2%  5%
[libx264 @ 0x5594cc26dc00] i4 v,h,dc,ddl,ddr,vr,hd,vl,hu: 10% 40% 14%  4%  6%  4%  9%  3%  9%
[libx264 @ 0x5594cc26dc00] i8c dc,h,v,p: 49% 39%  8%  5%
[libx264 @ 0x5594cc26dc00] Weighted P-Frames: Y:1.9% UV:0.9%
[libx264 @ 0x5594cc26dc00] kb/s:5806.00
[aac @ 0x5594cc3a6d80] Qavg: 796.036
[AVIOContext @ 0x5594cc236040] Statistics: 28798893 bytes read, 645 seeks
[AVIOContext @ 0x5594cc246a80] Statistics: 111578 bytes read, 0 seeks
